<svg width="91" height="27" viewBox="0 0 91 27" fill="none" xmlns="http://www.w3.org/2000/svg">
<path d="M25.244 26H17.252L8.792 13.184V26H0.8V0.512H8.792L17.252 13.544V0.512H25.244V26ZM41.2747 26.252C38.8747 26.252 36.6667 25.688 34.6507 24.56C32.6587 23.432 31.0747 21.872 29.8987 19.88C28.7227 17.888 28.1347 15.644 28.1347 13.148C28.1347 10.652 28.7227 8.408 29.8987 6.416C31.0747 4.424 32.6587 2.876 34.6507 1.772C36.6667 0.643999 38.8747 0.079999 41.2747 0.079999C43.6747 0.079999 45.8707 0.643999 47.8627 1.772C49.8547 2.876 51.4267 4.424 52.5787 6.416C53.7547 8.408 54.3427 10.652 54.3427 13.148C54.3427 15.644 53.7547 17.888 52.5787 19.88C51.4267 21.872 49.8427 23.432 47.8267 24.56C45.8347 25.688 43.6507 26.252 41.2747 26.252ZM41.2747 18.8C42.8587 18.8 44.0827 18.296 44.9467 17.288C45.8107 16.256 46.2427 14.876 46.2427 13.148C46.2427 11.396 45.8107 10.016 44.9467 9.008C44.0827 7.976 42.8587 7.46 41.2747 7.46C39.6667 7.46 38.4307 7.976 37.5667 9.008C36.7027 10.016 36.2707 11.396 36.2707 13.148C36.2707 14.876 36.7027 16.256 37.5667 17.288C38.4307 18.296 39.6667 18.8 41.2747 18.8ZM65.2178 0.512V26H57.2258V0.512H65.2178ZM81.6433 26L76.8553 16.856H76.8193V26H68.8273V0.512H80.7073C82.7713 0.512 84.5353 0.883999 85.9993 1.628C87.4633 2.348 88.5553 3.344 89.2753 4.616C90.0193 5.864 90.3913 7.28 90.3913 8.864C90.3913 10.568 89.9113 12.08 88.9513 13.4C88.0153 14.72 86.6593 15.668 84.8833 16.244L90.4273 26H81.6433ZM76.8193 11.528H79.9873C80.7553 11.528 81.3313 11.36 81.7153 11.024C82.0993 10.664 82.2913 10.112 82.2913 9.368C82.2913 8.696 82.0873 8.168 81.6793 7.784C81.2953 7.4 80.7313 7.208 79.9873 7.208H76.8193V11.528Z" fill="black"/>
</svg>
